HIERARCHY
ROOT Hips
{
	OFFSET -0.001795 -0.223333 0.028219
	CHANNELS 6 Xposition Yposition Zposition Zrotation Yrotation Xrotation 
	JOINT LeftUpLeg
	{
		OFFSET 0.069520 -0.091406 -0.006815
		CHANNELS 3 Zrotation Yrotation Xrotation
		JOINT LeftLeg
		{
			OFFSET 0.034277 -0.375199 -0.004496
			CHANNELS 3 Zrotation Yrotation Xrotation
			JOINT LeftFoot
			{
				OFFSET -0.013596 -0.397961 -0.043693
				CHANNELS 3 Zrotation Yrotation Xrotation
				JOINT LeftToe
				{
					OFFSET 0.026358 -0.055791 0.119288
					CHANNELS 3 Zrotation Yrotation Xrotation
					End Site
					{
						OFFSET 0.000000 0.000000 0.000000
					}
				}
			}
		}
	}
	JOINT RightUpLeg
	{
		OFFSET -0.067670 -0.090522 -0.004320
		CHANNELS 3 Zrotation Yrotation Xrotation
		JOINT RightLeg
		{
			OFFSET -0.038290 -0.382569 -0.008850
			CHANNELS 3 Zrotation Yrotation Xrotation
			JOINT RightFoot
			{
				OFFSET 0.015774 -0.398415 -0.042312
				CHANNELS 3 Zrotation Yrotation Xrotation
				JOINT RightToe
				{
					OFFSET -0.025372 -0.048144 0.123348
					CHANNELS 3 Zrotation Yrotation Xrotation
					End Site
					{
						OFFSET 0.000000 0.000000 0.000000
					}
				}
			}
		}
	}
	JOINT Spine
	{
		OFFSET -0.002533 0.108963 -0.026696
		CHANNELS 3 Zrotation Yrotation Xrotation
		JOINT Spine1
		{
			OFFSET 0.005487 0.135180 0.001092
			CHANNELS 3 Zrotation Yrotation Xrotation
			JOINT Spine2
			{
				OFFSET 0.001457 0.052922 0.025425
				CHANNELS 3 Zrotation Yrotation Xrotation
				JOINT Neck
				{
					OFFSET -0.002778 0.213870 -0.042857
					CHANNELS 3 Zrotation Yrotation Xrotation
					JOINT Head
					{
						OFFSET 0.005152 0.064970 0.051349
						CHANNELS 3 Zrotation Yrotation Xrotation
						End Site
						{
							OFFSET 0.000000 0.000000 0.000000
						}
					}
				}
				JOINT LeftShoulder
				{
					OFFSET 0.078845 0.121749 -0.034090
					CHANNELS 3 Zrotation Yrotation Xrotation
					JOINT LeftArm
					{
						OFFSET 0.090977 0.030469 -0.008868
						CHANNELS 3 Zrotation Yrotation Xrotation
						JOINT LeftForeArm
						{
							OFFSET 0.259612 -0.012772 -0.027456
							CHANNELS 3 Zrotation Yrotation Xrotation
							JOINT LeftHand
							{
								OFFSET 0.249234 0.008986 -0.001171
								CHANNELS 3 Zrotation Yrotation Xrotation
								End Site
								{
									OFFSET 0.000000 0.000000 0.000000
								}
							}
						}
					}
				}
				JOINT RightShoulder
				{
					OFFSET -0.081759 0.118833 -0.038615
					CHANNELS 3 Zrotation Yrotation Xrotation
					JOINT RightArm
					{
						OFFSET -0.096012 0.032551 -0.009143
						CHANNELS 3 Zrotation Yrotation Xrotation
						JOINT RightForeArm
						{
							OFFSET -0.253742 -0.013329 -0.021401
							CHANNELS 3 Zrotation Yrotation Xrotation
							JOINT RightHand
							{
								OFFSET -0.255298 0.007772 -0.005559
								CHANNELS 3 Zrotation Yrotation Xrotation
								End Site
								{
									OFFSET 0.000000 0.000000 0.000000
								}
							}
						}
					}
				}
			}
		}
	}
}
MOTION
Frames: 16
Frame Time: 0.050000
0.000000 0.956247 0.000000 -1.665161 -0.958553 -0.273764 5.300328 -0.012568 0.825590 -2.670848 0.304142 -0.573907 1.824478 6.048152 6.574234 0.000000 0.000000 0.000000 -1.588392 0.107843 -0.807426 2.629933 -0.180716 5.392746 -2.069586 -7.438788 6.262505 0.000000 0.000000 0.000000 -1.199261 -0.166753 5.754922 4.089034 -0.364068 -24.647778 0.019723 0.246159 28.698957 1.800915 0.550360 -27.236613 0.000000 0.000000 0.000000 -28.520267 3.402246 -3.905090 -50.176540 -5.889342 -6.021063 -11.283951 -28.061524 4.408754 0.000000 0.000000 0.000000 21.834158 1.209585 -0.603780 55.365240 5.463892 -5.534594 5.007562 31.270595 2.904267 0.000000 0.000000 0.000000 
0.000206 0.955680 -0.000667 -2.038431 -1.116848 0.163179 5.985482 -0.008499 1.321547 -3.250381 0.372552 -1.722080 2.291292 6.484978 5.150573 0.000000 0.000000 0.000000 -1.346884 0.206074 -1.945824 3.065274 -0.226092 6.669932 -2.472786 -7.674077 4.158124 0.000000 0.000000 0.000000 -1.323631 -0.154349 5.616051 3.984596 -0.341894 -24.617349 0.288260 -0.551772 28.262355 2.140483 0.191005 -27.008352 0.000000 0.000000 0.000000 -28.702796 4.188853 -4.133913 -50.120257 -5.828109 -6.095273 -11.948021 -28.447742 4.708577 0.000000 0.000000 0.000000 21.915722 1.280454 -0.863257 56.053505 4.230564 -6.051459 4.253010 32.767280 2.793287 0.000000 0.000000 0.000000 
-0.000319 0.954797 -0.001666 -1.694221 -1.124986 0.399024 6.156591 -0.047387 0.459029 -3.607950 0.404522 -0.324381 1.858419 5.621066 4.985660 0.000000 0.000000 0.000000 -1.850321 0.365607 -3.778396 3.353201 -0.239831 9.297813 -3.470147 -9.648485 3.216051 0.000000 0.000000 0.000000 -1.379700 -0.163424 6.104493 3.991364 -0.290662 -25.470728 -0.031289 -0.655804 28.615390 1.726238 0.417219 -27.296140 0.000000 0.000000 0.000000 -28.477429 3.919847 -3.857812 -49.250503 -5.996713 -6.008247 -13.090943 -29.223322 5.156704 0.000000 0.000000 0.000000 22.528625 1.123297 -1.042491 55.100510 3.792744 -6.175819 4.667586 32.679355 2.873547 0.000000 0.000000 0.000000 
-0.002034 0.954251 -0.002453 -1.594484 -1.412280 0.351793 6.198859 -0.052214 0.206348 -3.570501 0.402181 -0.041777 1.908141 5.479221 4.263821 0.000000 0.000000 0.000000 -1.632745 0.468430 -4.948015 3.369076 -0.203179 11.772342 -3.785299 -10.047129 1.994065 0.000000 0.000000 0.000000 -2.032169 -0.140039 6.963757 4.803580 -0.410082 -26.420576 0.038998 -1.142980 28.920408 1.904289 0.223386 -27.766166 0.000000 0.000000 0.000000 -29.449581 4.985479 -4.434244 -48.248297 -6.274795 -5.907589 -14.466879 -30.320787 5.810651 0.000000 0.000000 0.000000 22.750958 1.516713 -1.037254 54.541536 3.554648 -6.220929 4.294262 33.086758 2.752918 0.000000 0.000000 0.000000 
-0.005613 0.953171 -0.002958 -1.331594 -1.903883 -0.213030 6.098475 -0.023179 0.505634 -3.260941 0.370305 0.318802 2.074429 5.820846 4.401482 0.000000 0.000000 0.000000 -1.718404 0.542852 -5.849451 3.374785 -0.144591 14.696069 -4.188166 -10.837568 1.431323 0.000000 0.000000 0.000000 -2.328541 -0.144109 8.265035 5.291110 -0.577906 -25.729663 -0.138044 -0.828269 27.782785 1.574097 0.394902 -27.198057 0.000000 0.000000 0.000000 -29.408004 5.070928 -4.540417 -47.691885 -6.626570 -5.600862 -15.076544 -31.438278 6.191121 0.000000 0.000000 0.000000 23.002263 1.349430 -1.212782 54.411600 3.392434 -6.148014 4.561912 33.192323 2.807263 0.000000 0.000000 0.000000 
-0.011679 0.951419 -0.002548 -1.005638 -2.335689 -0.485938 6.136284 -0.015281 0.432735 -3.447226 0.394326 1.017074 2.575587 6.512219 3.503105 0.000000 0.000000 0.000000 -1.712493 0.598906 -6.501546 3.285642 -0.067335 16.769082 -4.590917 -11.573568 0.620035 0.000000 0.000000 0.000000 -2.974349 -0.099057 9.007519 5.802478 -0.644865 -26.422095 -0.107160 -1.099554 28.459754 1.586003 0.353210 -28.214911 0.000000 0.000000 0.000000 -29.635391 5.691198 -4.749708 -47.615284 -7.096629 -5.548321 -14.729113 -32.374406 6.359904 0.000000 0.000000 0.000000 22.929934 1.805188 -1.096258 54.445174 3.562511 -6.123180 4.054645 32.393113 2.553554 0.000000 0.000000 0.000000 
-0.020570 0.949700 -0.001167 -0.739571 -3.125036 -0.927654 6.204461 0.012323 0.647509 -3.050715 0.349364 1.420471 2.951281 7.223427 3.509068 0.000000 0.000000 0.000000 -1.398489 0.607760 -6.496922 3.497948 -0.062197 17.856489 -4.610373 -11.460380 0.094248 0.000000 0.000000 0.000000 -2.952478 -0.101271 9.373277 5.861871 -0.719222 -25.785128 -0.364851 -0.886952 28.152054 1.718531 0.164006 -27.165489 0.000000 0.000000 0.000000 -29.815927 5.977249 -4.860515 -47.110052 -7.217708 -5.479506 -14.349906 -32.892651 6.372664 0.000000 0.000000 0.000000 22.877671 2.024353 -1.070267 54.962692 3.348457 -6.234886 3.916921 32.602954 2.510920 0.000000 0.000000 0.000000 
-0.032237 0.948516 0.000847 -0.678136 -4.012015 -1.285469 6.770140 0.013815 0.153576 -3.044449 0.346942 4.039272 3.659184 8.136231 1.532142 0.000000 0.000000 0.000000 -0.792417 0.621968 -6.453939 3.839480 -0.092072 18.533981 -4.848618 -11.864646 -0.407046 0.000000 0.000000 0.000000 -2.940026 -0.102448 9.833462 6.125970 -0.790824 -25.826233 -0.707061 -0.825308 28.540932 1.922631 -0.083865 -26.647378 0.000000 0.000000 0.000000 -30.167478 6.030941 -4.714776 -46.537972 -7.752214 -5.358165 -12.960707 -34.220222 6.271343 0.000000 0.000000 0.000000 23.104472 2.147362 -1.171496 54.674292 3.876681 -5.995305 3.906788 32.007532 2.420864 0.000000 0.000000 0.000000 
-0.045388 0.947670 0.002490 -0.830757 -4.441621 -1.653620 7.974820 -0.028928 -2.574201 -3.246292 0.401820 10.386722 3.721530 7.805921 -0.394784 0.000000 0.000000 0.000000 0.095797 0.569268 -5.690873 4.093860 -0.156037 17.702729 -4.925524 -11.777682 -1.290998 0.000000 0.000000 0.000000 -2.589750 -0.140758 10.470395 6.103573 -0.811832 -25.596910 -0.851986 -0.605709 28.713949 1.603042 0.058488 -26.184354 0.000000 0.000000 0.000000 -30.138737 5.560337 -4.350429 -45.901492 -8.013546 -5.254694 -12.644358 -34.748445 6.260931 0.000000 0.000000 0.000000 23.065031 2.407534 -1.019358 54.668333 3.814332 -6.055541 3.542861 31.932553 2.315937 0.000000 0.000000 0.000000 
-0.058240 0.946189 0.003218 -0.889952 -4.278779 -1.877447 8.959075 -0.060103 -8.417966 -3.892905 0.704303 21.087071 4.043783 7.813549 -3.025979 0.000000 0.000000 0.000000 0.707356 0.534329 -5.225370 4.877695 -0.359411 17.958578 -5.392290 -12.745747 -2.020193 0.000000 0.000000 0.000000 -2.485480 -0.169065 11.898129 6.303406 -0.833482 -25.885395 -0.773790 -0.402334 28.811558 1.255410 0.328922 -26.342560 0.000000 0.000000 0.000000 -30.380993 5.436267 -4.410182 -44.924548 -8.192311 -5.095032 -12.038714 -35.938865 6.255604 0.000000 0.000000 0.000000 22.961546 2.380918 -0.914220 53.836981 4.749102 -5.605681 3.323469 31.053958 2.197838 0.000000 0.000000 0.000000 
-0.068821 0.945555 0.004721 -1.242833 -4.722576 -1.547920 10.446990 0.145897 -16.239185 -4.688267 1.453198 34.423400 4.822593 9.704970 -1.891086 0.000000 0.000000 0.000000 1.318540 0.576209 -5.498013 5.184623 -0.409754 18.407884 -5.750473 -13.568001 -2.201234 0.000000 0.000000 0.000000 -2.334710 -0.184938 12.376479 6.590293 -0.953479 -25.346821 -0.178957 0.137311 28.883205 0.070894 1.129043 -27.223505 0.000000 0.000000 0.000000 -31.039754 5.940020 -4.969332 -44.561482 -7.907820 -5.144022 -13.095523 -37.231092 6.860847 0.000000 0.000000 0.000000 22.019364 3.376944 -0.147219 52.674387 6.040580 -5.001017 3.814641 30.218898 2.244326 0.000000 0.000000 0.000000 
-0.076200 0.945531 0.008658 -0.677570 -4.291762 -1.387674 9.589283 0.063929 -24.960412 -5.808852 2.595635 47.527452 5.880710 12.197057 0.171540 0.000000 0.000000 0.000000 0.608180 0.562199 -5.516213 6.154388 -0.680490 19.163650 -5.974713 -14.140569 -2.302745 0.000000 0.000000 0.000000 -3.035291 -0.110354 13.460026 7.523783 -1.192650 -25.038152 0.041794 1.346308 28.079016 -1.040319 2.054199 -27.695607 0.000000 0.000000 0.000000 -32.778179 5.410033 -5.535874 -42.663394 -6.716942 -5.097244 -14.902155 -39.375888 7.719439 0.000000 0.000000 0.000000 22.144271 3.942168 0.603157 50.606151 7.100531 -4.425299 4.463674 30.246777 2.456817 0.000000 0.000000 0.000000 
-0.081119 0.946779 0.016266 -0.158154 -5.078821 -1.617160 8.456934 -0.079217 -31.205978 -7.252409 4.321978 55.660458 6.480445 13.355591 0.253775 0.000000 0.000000 0.000000 0.584874 0.450416 -4.495043 5.657035 -0.495662 19.624953 -5.613476 -13.085414 -2.580988 0.000000 0.000000 0.000000 -3.304820 -0.059883 14.531840 7.326373 -1.147195 -25.147852 1.279802 3.315519 28.140225 -1.157004 2.372635 -27.304207 0.000000 0.000000 0.000000 -33.310538 5.826349 -6.574847 -42.314721 -5.702764 -5.203414 -17.255337 -40.088900 8.611749 0.000000 0.000000 0.000000 21.083164 3.753866 0.987669 49.436324 7.984185 -4.125607 5.117510 30.491032 2.719081 0.000000 0.000000 0.000000 
-0.084620 0.948449 0.027563 0.568181 -5.722427 -1.866310 7.285371 -0.317456 -35.534379 -8.947278 5.779155 56.607729 6.892263 14.055635 -0.363806 0.000000 0.000000 0.000000 -0.218426 0.323243 -3.311863 5.886889 -0.514696 19.738084 -5.184586 -11.855898 -2.836087 0.000000 0.000000 0.000000 -3.608022 0.006352 15.640861 7.134378 -1.125982 -24.999513 1.718866 5.160875 28.329535 -1.243899 2.626838 -25.587927 0.000000 0.000000 0.000000 -33.546603 5.406978 -6.949765 -42.139421 -5.263411 -5.147625 -17.726136 -39.518951 8.493561 0.000000 0.000000 0.000000 20.740631 4.028511 1.570152 48.875094 9.570176 -3.597266 4.317330 31.108658 2.666067 0.000000 0.000000 0.000000 
-0.087534 0.949571 0.042093 1.101833 -6.065307 -1.821119 6.583565 -0.488245 -38.186824 -10.046922 6.051985 52.155884 7.051745 14.253723 -1.178265 0.000000 0.000000 0.000000 -0.583829 0.246684 -2.497485 5.465339 -0.377411 19.901591 -5.020757 -11.297300 -3.139477 0.000000 0.000000 0.000000 -3.832073 0.066432 16.766918 7.005139 -1.100106 -25.000010 2.042194 6.098016 27.826375 -1.252361 2.726198 -24.548354 0.000000 0.000000 0.000000 -33.604322 6.033538 -7.790659 -42.274518 -3.915261 -5.420746 -18.794917 -38.276387 8.488386 0.000000 0.000000 0.000000 20.285877 3.933123 1.704169 48.236662 11.067570 -2.979296 4.416608 31.530904 2.772379 0.000000 0.000000 0.000000 
-0.089733 0.948215 0.060349 1.343634 -6.002277 -2.135830 5.558068 -0.861081 -38.413599 -10.289262 5.267332 44.744704 6.558708 13.114528 -2.271676 0.000000 0.000000 0.000000 -0.824826 0.074399 -0.550314 5.373238 -0.371294 19.144384 -4.490184 -9.965351 -3.001062 0.000000 0.000000 0.000000 -4.093219 0.124812 17.982280 6.014194 -0.812399 -25.684702 2.926297 5.953897 28.596893 -0.235452 2.038469 -23.423954 0.000000 0.000000 0.000000 -33.317184 5.693378 -7.393810 -42.957898 -3.023643 -5.881133 -17.573947 -37.884572 8.008127 0.000000 0.000000 0.000000 20.105967 4.235437 1.864121 48.479395 12.662646 -2.417382 3.346575 33.677239 2.724671 0.000000 0.000000 0.000000 
